<svg width="18" height="12" viewBox="0 0 18 12" fill="none" xmlns="http://www.w3.org/2000/svg">
<path d="M16.5284 3.58836L18 1.98711H14.7394C13.0485 0.836171 11.0504 0.220673 9.005 0.220673C6.95958 0.220673 4.9615 0.836171 3.27063 1.98711H0L1.47156 3.58836C0.596043 4.39616 0.0767885 5.51832 0.0277641 6.70856C-0.0212604 7.8988 0.403951 9.05986 1.21007 9.93693C2.0162 10.814 3.13736 11.3354 4.32751 11.3867C5.51765 11.438 6.67952 11.015 7.55813 10.2106L9 11.7793L10.4409 10.2115C11.0828 10.8062 11.8842 11.2008 12.747 11.3469C13.6097 11.4931 14.4964 11.3844 15.2983 11.0342C16.1002 10.684 16.7825 10.1075 17.2618 9.37535C17.741 8.64319 17.9962 7.78716 17.9963 6.91211H17.9953C17.9961 6.28644 17.866 5.66752 17.6134 5.09511C17.3608 4.5227 16.9912 4.00946 16.5284 3.58836ZM4.50187 9.95555C3.89994 9.95555 3.31152 9.77706 2.81103 9.44264C2.31054 9.10822 1.92046 8.6329 1.69011 8.07679C1.45975 7.52067 1.39948 6.90874 1.51692 6.31837C1.63435 5.728 1.92421 5.18571 2.34984 4.76008C2.77547 4.33445 3.31776 4.04459 3.90813 3.92715C4.4985 3.80972 5.11043 3.86999 5.66655 4.10034C6.22266 4.33069 6.69798 4.72078 7.0324 5.22127C7.36682 5.72176 7.54531 6.31018 7.54531 6.91211C7.54531 7.71928 7.22467 8.49339 6.65391 9.06415C6.08315 9.6349 5.30904 9.95555 4.50187 9.95555ZM9 6.8243C9 4.82149 7.54313 3.10305 5.62219 2.36836C6.69243 1.92239 7.8404 1.69278 8.99984 1.69278C10.1593 1.69278 11.3073 1.92239 12.3775 2.36836C10.4566 3.10336 9 4.8218 9 6.8243ZM13.4963 9.95555H13.4959C12.6887 9.95551 11.9145 9.63478 11.3436 9.06393C10.7728 8.49307 10.4522 7.71885 10.4522 6.91157C10.4522 6.10429 10.7729 5.33008 11.3438 4.75925C11.9146 4.18842 12.6888 3.86774 13.4961 3.86774C14.3034 3.86774 15.0776 4.18842 15.6484 4.75925C16.2193 5.33008 16.54 6.10429 16.54 6.91157C16.54 7.71885 16.2194 8.49307 15.6485 9.06393C15.0777 9.63478 14.3035 9.95551 13.4963 9.95555ZM4.50187 5.31649H4.50156C4.18598 5.31649 3.87748 5.41007 3.61508 5.5854C3.35268 5.76073 3.14817 6.00993 3.0274 6.30149C2.90663 6.59306 2.87503 6.91388 2.9366 7.2234C2.99816 7.53293 3.15013 7.81724 3.37329 8.04039C3.59644 8.26354 3.88075 8.41551 4.19027 8.47708C4.49979 8.53865 4.82062 8.50705 5.11218 8.38628C5.40374 8.26551 5.65295 8.06099 5.82828 7.79859C6.00361 7.5362 6.09719 7.2277 6.09719 6.91211V6.90868C6.09698 6.69938 6.05556 6.49218 5.97527 6.29889C5.89499 6.10561 5.77742 5.93003 5.62928 5.78218C5.48115 5.63433 5.30534 5.51711 5.1119 5.43721C4.91845 5.3573 4.71117 5.31628 4.50187 5.31649ZM13.4963 5.31649C13.1807 5.31649 12.8722 5.41007 12.6098 5.5854C12.3474 5.76073 12.1429 6.00993 12.0221 6.30149C11.9013 6.59306 11.8697 6.91388 11.9313 7.2234C11.9929 7.53293 12.1448 7.81724 12.368 8.04039C12.5911 8.26354 12.8754 8.41551 13.185 8.47708C13.4945 8.53865 13.8153 8.50705 14.1069 8.38628C14.3984 8.26551 14.6476 8.06099 14.823 7.79859C14.9983 7.5362 15.0919 7.2277 15.0919 6.91211C15.0919 6.48893 14.9238 6.08307 14.6245 5.78384C14.3253 5.4846 13.9194 5.31649 13.4963 5.31649Z" fill="#3F2B21"/>
</svg>
